<svg width="278" height="40" viewBox="0 0 278 40" fill="none" xmlns="http://www.w3.org/2000/svg">
<path d="M15.5086 17.99H9.14036V33.5009H6.86826V17.99H0.5V15.8794H15.5086V17.99Z" fill="#0C0C0C"/>
<path d="M24.9568 33.6684C23.3354 33.6684 21.874 33.2887 20.5726 32.5293C19.2712 31.7476 18.2472 30.6756 17.5005 29.3132C16.7538 27.9509 16.3804 26.4098 16.3804 24.6901C16.3804 22.9704 16.7538 21.4294 17.5005 20.067C18.2472 18.7047 19.2712 17.6438 20.5726 16.8844C21.874 16.1251 23.3354 15.7454 24.9568 15.7454C26.5782 15.7454 28.0396 16.1251 29.3409 16.8844C30.6423 17.6438 31.6557 18.7047 32.3811 20.067C33.1278 21.4294 33.5011 22.9704 33.5011 24.6901C33.5011 26.4098 33.1278 27.9509 32.3811 29.3132C31.6557 30.6756 30.6423 31.7476 29.3409 32.5293C28.0396 33.2887 26.5782 33.6684 24.9568 33.6684ZM24.9568 31.5578C26.1515 31.5578 27.2182 31.2786 28.1569 30.7203C29.1169 30.1396 29.8636 29.3244 30.397 28.2747C30.9303 27.225 31.197 26.0302 31.197 24.6901C31.197 23.3501 30.9303 22.1552 30.397 21.1055C29.8636 20.0559 29.1169 19.2518 28.1569 18.6935C27.2182 18.1128 26.1515 17.8225 24.9568 17.8225C23.7621 17.8225 22.6847 18.1128 21.7246 18.6935C20.7859 19.2518 20.0392 20.0559 19.4845 21.1055C18.9512 22.1552 18.6845 23.3501 18.6845 24.6901C18.6845 26.0302 18.9512 27.225 19.4845 28.2747C20.0392 29.3244 20.7859 30.1396 21.7246 30.7203C22.6847 31.2786 23.7621 31.5578 24.9568 31.5578Z" fill="#0C0C0C"/>
<path d="M44.4693 25.6617H40.6292V33.5009H38.3571V15.8794H40.6292V23.6181H44.5013L50.4216 15.8794H52.8857L46.2614 24.4221L53.3657 33.5009H50.6776L44.4693 25.6617Z" fill="#0C0C0C"/>
<path d="M71.0784 25.4272H56.9978C57.1259 27.2585 57.7979 28.7437 59.0139 29.8828C60.23 30.9995 61.766 31.5578 63.6221 31.5578C64.6675 31.5578 65.6275 31.368 66.5022 30.9883C67.3769 30.5863 68.1343 30.0056 68.7743 29.2462L70.0544 30.7873C69.3077 31.7253 68.369 32.44 67.2383 32.9313C66.1289 33.4227 64.9022 33.6684 63.5581 33.6684C61.83 33.6684 60.294 33.2887 58.9499 32.5293C57.6272 31.7476 56.5925 30.6756 55.8458 29.3132C55.0991 27.9509 54.7257 26.4098 54.7257 24.6901C54.7257 22.9704 55.0778 21.4294 55.7818 20.067C56.5072 18.7047 57.4885 17.6438 58.7259 16.8844C59.9846 16.1251 61.3927 15.7454 62.9501 15.7454C64.5075 15.7454 65.9049 16.1251 67.1423 16.8844C68.3797 17.6438 69.3504 18.7047 70.0544 20.067C70.7584 21.4071 71.1104 22.9481 71.1104 24.6901L71.0784 25.4272ZM62.9501 17.789C61.3287 17.789 59.9633 18.3361 58.8539 19.4305C57.7659 20.5025 57.1472 21.9096 56.9978 23.6516H68.9343C68.785 21.9096 68.1556 20.5025 67.0463 19.4305C65.9582 18.3361 64.5928 17.789 62.9501 17.789Z" fill="#0C0C0C"/>
<path d="M76.1399 15.8794H78.412V23.6851H89.0044V15.8794H91.2765V33.5009H89.0044V25.7287H78.412V33.5009H76.1399V15.8794Z" fill="#0C0C0C"/>
<path d="M113.863 28.4087H116.263L114.599 37.2529H108.967L109.671 33.5009H98.7266L98.0546 37.2529H92.3903L94.0864 28.4087H94.5024C95.5691 28.3864 96.4438 27.7387 97.1265 26.4657C97.8305 25.1926 98.4279 23.5064 98.9186 21.4071L100.327 15.3434H116.359L113.863 28.4087ZM104.231 22.4121C103.847 24.1095 103.516 25.3937 103.239 26.2647C102.961 27.1357 102.556 27.8504 102.023 28.4087H107.815L109.319 20.402H104.679L104.231 22.4121Z" fill="#0C0C0C"/>
<path d="M127.454 33.8024C125.619 33.8024 124.019 33.4674 122.653 32.7973C121.288 32.105 120.232 31.1335 119.485 29.8828C118.738 28.6321 118.365 27.1804 118.365 25.5277C118.365 23.5399 118.824 21.7532 119.741 20.1675C120.659 18.5818 121.928 17.3311 123.549 16.4154C125.171 15.4997 126.995 15.0419 129.022 15.0419C130.856 15.0419 132.456 15.3881 133.822 16.0804C135.187 16.7504 136.243 17.7108 136.99 18.9615C137.737 20.1899 138.11 21.6304 138.11 23.2831C138.11 25.2708 137.651 27.0687 136.734 28.6767C135.817 30.2624 134.547 31.5131 132.926 32.4288C131.326 33.3445 129.502 33.8024 127.454 33.8024ZM127.806 28.6767C129.022 28.6767 130.014 28.2077 130.782 27.2697C131.55 26.3317 131.934 25.1145 131.934 23.6181C131.934 22.5461 131.646 21.6974 131.07 21.072C130.494 20.4467 129.694 20.134 128.67 20.134C127.454 20.134 126.461 20.603 125.693 21.5411C124.925 22.4791 124.541 23.7074 124.541 25.2261C124.541 26.2982 124.829 27.1469 125.405 27.7722C125.981 28.3752 126.782 28.6767 127.806 28.6767Z" fill="#0C0C0C"/>
<path d="M153.6 14.5059C151.893 14.7962 150.517 15.3099 149.472 16.0469C148.426 16.7616 147.637 17.789 147.104 19.129C148.746 17.9676 150.602 17.387 152.672 17.387C154.912 17.387 156.661 18.0011 157.92 19.2295C159.2 20.4579 159.84 22.1664 159.84 24.3551C159.84 26.2312 159.392 27.895 158.496 29.3467C157.6 30.7985 156.331 31.9375 154.688 32.7638C153.067 33.5679 151.189 33.9699 149.056 33.9699C146.218 33.9699 144.031 33.1993 142.495 31.6583C140.981 30.1173 140.223 27.8057 140.223 24.7236C140.223 22.1999 140.714 19.866 141.695 17.722C142.677 15.5779 144.063 13.7912 145.856 12.3618C147.669 10.9101 149.781 9.96094 152.192 9.51426L161.056 7.90622L160.96 13.2329L153.6 14.5059ZM150.304 22.0436C149.13 22.0436 148.16 22.4344 147.392 23.2161C146.624 23.9978 146.24 24.9358 146.24 26.0302C146.24 27.0575 146.506 27.8504 147.04 28.4087C147.594 28.9671 148.341 29.2462 149.28 29.2462C150.453 29.2462 151.402 28.8554 152.128 28.0737C152.853 27.2697 153.216 26.2758 153.216 25.0921C153.216 24.1095 152.949 23.3613 152.416 22.8476C151.904 22.3116 151.2 22.0436 150.304 22.0436Z" fill="#0C0C0C"/>
<path d="M174.933 15.0419C176.213 15.0419 177.407 15.3769 178.517 16.0469C179.647 16.6946 180.554 17.6438 181.237 18.8945C181.919 20.1452 182.261 21.6081 182.261 23.2831C182.261 25.2708 181.834 27.0687 180.981 28.6767C180.149 30.2624 179.007 31.5131 177.557 32.4288C176.127 33.3445 174.559 33.8024 172.852 33.8024C170.335 33.8024 168.564 32.976 167.54 31.3233L165.876 40H159.796L164.5 15.3434H170.26L169.908 17.0519C171.295 15.7119 172.97 15.0419 174.933 15.0419ZM171.988 28.6767C173.204 28.6767 174.196 28.2077 174.964 27.2697C175.733 26.3317 176.117 25.1145 176.117 23.6181C176.117 22.5461 175.818 21.6974 175.221 21.072C174.644 20.4467 173.844 20.134 172.82 20.134C171.604 20.134 170.612 20.603 169.844 21.5411C169.076 22.4791 168.692 23.7074 168.692 25.2261C168.692 26.2982 168.98 27.1469 169.556 27.7722C170.154 28.3752 170.964 28.6767 171.988 28.6767Z" fill="#0C0C0C"/>
<path d="M205.212 15.3434L201.756 33.5009H195.996L196.348 31.7923C194.961 33.1323 193.286 33.8024 191.323 33.8024C190.043 33.8024 188.838 33.4785 187.707 32.8308C186.598 32.1608 185.702 31.2005 185.019 29.9498C184.336 28.6991 183.995 27.225 183.995 25.5277C183.995 23.5623 184.411 21.7867 185.243 20.201C186.097 18.593 187.238 17.3311 188.667 16.4154C190.118 15.4997 191.697 15.0419 193.404 15.0419C195.921 15.0419 197.692 15.8682 198.716 17.521L199.132 15.3434H205.212ZM193.436 28.6767C194.652 28.6767 195.644 28.2077 196.412 27.2697C197.18 26.3317 197.564 25.1145 197.564 23.6181C197.564 22.5461 197.265 21.6974 196.668 21.072C196.092 20.4467 195.292 20.134 194.268 20.134C193.051 20.134 192.059 20.603 191.291 21.5411C190.523 22.4791 190.139 23.7074 190.139 25.2261C190.139 26.2982 190.427 27.1469 191.003 27.7722C191.601 28.3752 192.411 28.6767 193.436 28.6767Z" fill="#0C0C0C"/>
<path fill-rule="evenodd" clip-rule="evenodd" d="M265.71 0.881601H221.077C215.03 0.881601 210.129 6.01278 210.129 12.3424V19.3952C210.129 25.7248 215.03 30.856 221.077 30.856H265.71C271.756 30.856 276.658 25.7248 276.658 19.3952V12.3424C276.658 6.01278 271.756 0.881601 265.71 0.881601ZM221.077 0C214.565 0 209.287 5.52589 209.287 12.3424V19.3952C209.287 26.2117 214.565 31.7376 221.077 31.7376H265.71C272.221 31.7376 277.5 26.2117 277.5 19.3952V12.3424C277.5 5.52589 272.221 0 265.71 0H221.077Z" fill="#0C0C0C"/>
<path d="M225.295 22.9216V8.81601H226.847V14.023H226.979C227.093 13.8393 227.251 13.6051 227.453 13.3204C227.659 13.0312 227.953 12.774 228.334 12.549C228.72 12.3195 229.242 12.2047 229.9 12.2047C230.751 12.2047 231.501 12.4274 232.15 12.8728C232.799 13.3181 233.306 13.9495 233.67 14.7668C234.034 15.5841 234.216 16.5484 234.216 17.6596C234.216 18.7799 234.034 19.7511 233.67 20.573C233.306 21.3903 232.802 22.0239 232.157 22.4739C231.512 22.9193 230.769 23.142 229.926 23.142C229.277 23.142 228.758 23.0295 228.367 22.8045C227.977 22.5749 227.676 22.3155 227.466 22.0262C227.255 21.7324 227.093 21.489 226.979 21.2962H226.795V22.9216H225.295ZM226.821 17.632C226.821 18.431 226.933 19.1358 227.157 19.7465C227.38 20.3526 227.707 20.8278 228.137 21.1722C228.567 21.512 229.093 21.6819 229.716 21.6819C230.365 21.6819 230.907 21.5028 231.341 21.1446C231.78 20.7819 232.109 20.2952 232.328 19.6845C232.552 19.0692 232.663 18.385 232.663 17.632C232.663 16.8882 232.554 16.2178 232.334 15.6209C232.12 15.0194 231.793 14.5441 231.354 14.1952C230.92 13.8416 230.374 13.6648 229.716 13.6648C229.084 13.6648 228.554 13.8324 228.124 14.1676C227.694 14.4982 227.369 14.962 227.15 15.5589C226.931 16.1512 226.821 16.8422 226.821 17.632Z" fill="#0C0C0C"/>
<path d="M240.828 23.142C239.854 23.142 239.015 22.917 238.308 22.467C237.607 22.0125 237.065 21.3788 236.683 20.5661C236.306 19.7488 236.117 18.7983 236.117 17.7147C236.117 16.631 236.306 15.676 236.683 14.8495C237.065 14.0184 237.596 13.3709 238.275 12.9072C238.96 12.4388 239.758 12.2047 240.67 12.2047C241.197 12.2047 241.716 12.2965 242.23 12.4802C242.743 12.6638 243.21 12.9623 243.631 13.3755C244.052 13.7842 244.388 14.326 244.638 15.001C244.888 15.676 245.013 16.5071 245.013 17.4943V18.183H237.223V16.778H243.434C243.434 16.181 243.32 15.6484 243.091 15.1801C242.868 14.7117 242.548 14.3421 242.131 14.0712C241.719 13.8003 241.232 13.6648 240.67 13.6648C240.052 13.6648 239.517 13.8255 239.065 14.1469C238.618 14.4638 238.273 14.877 238.032 15.3867C237.791 15.8964 237.67 16.4428 237.67 17.0259V17.9626C237.67 18.7616 237.802 19.4388 238.065 19.9944C238.332 20.5454 238.703 20.9656 239.177 21.2548C239.651 21.5395 240.201 21.6819 240.828 21.6819C241.236 21.6819 241.605 21.6222 241.934 21.5028C242.267 21.3788 242.554 21.1952 242.795 20.9518C243.037 20.7038 243.223 20.3962 243.355 20.0289L244.855 20.4697C244.697 21.0023 244.431 21.4707 244.059 21.8747C243.686 22.2742 243.225 22.5864 242.677 22.8114C242.129 23.0318 241.512 23.142 240.828 23.142Z" fill="#0C0C0C"/>
<path d="M251.769 12.3424V13.7199H246.532V12.3424H251.769ZM248.059 9.80781H249.611V19.8911C249.611 20.3503 249.675 20.6947 249.802 20.9242C249.934 21.1492 250.101 21.3008 250.302 21.3788C250.508 21.4523 250.726 21.489 250.954 21.489C251.125 21.489 251.265 21.4798 251.375 21.4615C251.484 21.4385 251.572 21.4201 251.638 21.4064L251.954 22.8665C251.848 22.9078 251.701 22.9492 251.513 22.9905C251.324 23.0364 251.085 23.0594 250.796 23.0594C250.357 23.0594 249.927 22.9606 249.506 22.7632C249.09 22.5658 248.743 22.265 248.467 21.8609C248.195 21.4569 248.059 20.9472 248.059 20.3319V9.80781Z" fill="#0C0C0C"/>
<path d="M257.079 23.1696C256.439 23.1696 255.857 23.0433 255.335 22.7908C254.813 22.5336 254.399 22.164 254.092 21.6819C253.785 21.1952 253.631 20.6074 253.631 19.9187C253.631 19.3126 253.745 18.8213 253.973 18.4447C254.202 18.0636 254.506 17.7652 254.888 17.5494C255.27 17.3336 255.691 17.1728 256.151 17.0672C256.616 16.957 257.083 16.8698 257.553 16.8055C258.167 16.7229 258.664 16.6609 259.046 16.6196C259.432 16.5736 259.713 16.4979 259.888 16.3923C260.068 16.2867 260.158 16.103 260.158 15.8413V15.7862C260.158 15.1066 259.98 14.5786 259.625 14.202C259.274 13.8255 258.741 13.6373 258.026 13.6373C257.285 13.6373 256.704 13.8072 256.283 14.1469C255.862 14.4867 255.566 14.8495 255.395 15.2352L253.921 14.6842C254.184 14.0413 254.535 13.5408 254.974 13.1827C255.417 12.8199 255.899 12.5674 256.421 12.4251C256.947 12.2781 257.465 12.2047 257.974 12.2047C258.298 12.2047 258.671 12.246 259.092 12.3286C259.518 12.4067 259.928 12.5697 260.322 12.8176C260.722 13.0656 261.053 13.4398 261.316 13.9403C261.579 14.4408 261.711 15.1112 261.711 15.9515V22.9216H260.158V21.489H260.079C259.974 21.7186 259.798 21.9643 259.553 22.226C259.307 22.4877 258.98 22.7104 258.572 22.8941C258.164 23.0777 257.667 23.1696 257.079 23.1696ZM257.316 21.7094C257.93 21.7094 258.447 21.5831 258.868 21.3306C259.294 21.0781 259.614 20.7521 259.829 20.3526C260.048 19.9531 260.158 19.533 260.158 19.0922V17.6045C260.092 17.6871 259.947 17.7629 259.724 17.8318C259.504 17.896 259.25 17.9534 258.961 18.0039C258.675 18.0499 258.397 18.0912 258.125 18.1279C257.857 18.1601 257.64 18.1876 257.474 18.2106C257.07 18.2657 256.693 18.3552 256.342 18.4792C255.996 18.5986 255.715 18.7799 255.5 19.0233C255.289 19.2621 255.184 19.5881 255.184 20.0013C255.184 20.5661 255.384 20.9931 255.783 21.2824C256.186 21.5671 256.697 21.7094 257.316 21.7094Z" fill="#0C0C0C"/>
</svg>
