<svg width="205" height="31" viewBox="0 0 205 31" fill="none" xmlns="http://www.w3.org/2000/svg">
<path d="M15.0086 9.5903H8.64036V24.3256H6.36826V9.5903H0V7.58528H15.0086V9.5903Z" fill="black"/>
<path d="M24.4568 24.4848C22.8354 24.4848 21.374 24.1241 20.0726 23.4027C18.7712 22.6601 17.7472 21.6417 17.0005 20.3474C16.2538 19.0532 15.8804 17.5892 15.8804 15.9555C15.8804 14.3217 16.2538 12.8578 17.0005 11.5635C17.7472 10.2693 18.7712 9.26144 20.0726 8.54005C21.374 7.81867 22.8354 7.45798 24.4568 7.45798C26.0782 7.45798 27.5396 7.81867 28.8409 8.54005C30.1423 9.26144 31.1557 10.2693 31.8811 11.5635C32.6278 12.8578 33.0011 14.3217 33.0011 15.9555C33.0011 17.5892 32.6278 19.0532 31.8811 20.3474C31.1557 21.6417 30.1423 22.6601 28.8409 23.4027C27.5396 24.1241 26.0782 24.4848 24.4568 24.4848ZM24.4568 22.4797C25.6515 22.4797 26.7182 22.2145 27.6569 21.6841C28.6169 21.1325 29.3636 20.358 29.897 19.3608C30.4303 18.3636 30.697 17.2285 30.697 15.9555C30.697 14.6824 30.4303 13.5473 29.897 12.5501C29.3636 11.5529 28.6169 10.7891 27.6569 10.2586C26.7182 9.707 25.6515 9.43117 24.4568 9.43117C23.2621 9.43117 22.1847 9.707 21.2246 10.2586C20.2859 10.7891 19.5392 11.5529 18.9845 12.5501C18.4512 13.5473 18.1845 14.6824 18.1845 15.9555C18.1845 17.2285 18.4512 18.3636 18.9845 19.3608C19.5392 20.358 20.2859 21.1325 21.2246 21.6841C22.1847 22.2145 23.2621 22.4797 24.4568 22.4797Z" fill="black"/>
<path d="M43.9693 16.8784H40.1292V24.3256H37.8571V7.58528H40.1292V14.937H44.0013L49.9216 7.58528H52.3857L45.7614 15.7009L52.8657 24.3256H50.1776L43.9693 16.8784Z" fill="black"/>
<path d="M70.5784 16.6556H56.4978C56.6259 18.3954 57.2979 19.8064 58.5139 20.8885C59.73 21.9493 61.266 22.4797 63.1221 22.4797C64.1675 22.4797 65.1275 22.2994 66.0022 21.9387C66.8769 21.5568 67.6343 21.0051 68.2743 20.2838L69.5544 21.7478C68.8077 22.6389 67.869 23.3178 66.7383 23.7846C65.6289 24.2514 64.4022 24.4848 63.0581 24.4848C61.33 24.4848 59.794 24.1241 58.4499 23.4027C57.1272 22.6601 56.0925 21.6417 55.3458 20.3474C54.5991 19.0532 54.2257 17.5892 54.2257 15.9555C54.2257 14.3217 54.5778 12.8578 55.2818 11.5635C56.0072 10.2693 56.9885 9.26144 58.2259 8.54005C59.4846 7.81867 60.8927 7.45798 62.4501 7.45798C64.0075 7.45798 65.4049 7.81867 66.6423 8.54005C67.8797 9.26144 68.8504 10.2693 69.5544 11.5635C70.2584 12.8365 70.6104 14.3005 70.6104 15.9555L70.5784 16.6556ZM62.4501 9.39935C60.8287 9.39935 59.4633 9.91917 58.3539 10.9588C57.2659 11.9772 56.6472 13.3139 56.4978 14.9689H68.4343C68.285 13.3139 67.6556 11.9772 66.5463 10.9588C65.4582 9.91917 64.0928 9.39935 62.4501 9.39935Z" fill="black"/>
<path d="M75.6399 7.58528H77.912V15.0007H88.5044V7.58528H90.7765V24.3256H88.5044V16.9421H77.912V24.3256H75.6399V7.58528Z" fill="black"/>
<path d="M113.363 19.4881H115.763L114.099 27.8901H108.467L109.171 24.3256H98.2266L97.5546 27.8901H91.8903L93.5864 19.4881H94.0024C95.0691 19.4669 95.9438 18.8516 96.6265 17.6422C97.3305 16.4328 97.9279 14.8309 98.4186 12.8365L99.8267 7.07607H115.859L113.363 19.4881ZM103.731 13.7913C103.347 15.4038 103.016 16.6238 102.739 17.4513C102.461 18.2787 102.056 18.9577 101.523 19.4881H107.315L108.819 11.8818H104.179L103.731 13.7913Z" fill="black"/>
<path d="M126.954 24.6121C125.119 24.6121 123.519 24.2938 122.153 23.6573C120.788 22.9996 119.732 22.0766 118.985 20.8885C118.238 19.7003 117.865 18.3212 117.865 16.7511C117.865 14.8628 118.324 13.1654 119.241 11.659C120.159 10.1526 121.428 8.9644 123.049 8.09449C124.671 7.22459 126.495 6.78963 128.522 6.78963C130.356 6.78963 131.956 7.1185 133.322 7.77623C134.687 8.41275 135.743 9.32509 136.49 10.5133C137.237 11.6802 137.61 13.0487 137.61 14.6188C137.61 16.5071 137.151 18.2151 136.234 19.7427C135.317 21.2491 134.047 22.4373 132.426 23.3072C130.826 24.1771 129.002 24.6121 126.954 24.6121ZM127.306 19.7427C128.522 19.7427 129.514 19.2972 130.282 18.406C131.05 17.5149 131.434 16.3586 131.434 14.937C131.434 13.9186 131.146 13.1124 130.57 12.5183C129.994 11.9242 129.194 11.6272 128.17 11.6272C126.954 11.6272 125.961 12.0727 125.193 12.9638C124.425 13.855 124.041 15.0219 124.041 16.4647C124.041 17.4831 124.329 18.2894 124.905 18.8834C125.481 19.4563 126.282 19.7427 127.306 19.7427Z" fill="black"/>
<path d="M153.1 6.28042C151.393 6.55625 150.017 7.04424 148.972 7.74441C147.926 8.42336 147.137 9.39935 146.604 10.6724C148.246 9.56909 150.102 9.01744 152.172 9.01744C154.412 9.01744 156.161 9.60091 157.42 10.7679C158.7 11.9348 159.34 13.5579 159.34 15.6372C159.34 17.4194 158.892 19.0001 157.996 20.3792C157.1 21.7584 155.831 22.8404 154.188 23.6255C152.567 24.3893 150.689 24.7712 148.556 24.7712C145.718 24.7712 143.531 24.0392 141.995 22.5752C140.481 21.1112 139.723 18.9153 139.723 15.9873C139.723 13.5897 140.214 11.3725 141.195 9.3357C142.177 7.29885 143.563 5.60147 145.356 4.24357C147.169 2.86445 149.281 1.96272 151.692 1.53838L160.556 0.0107422L160.46 5.07104L153.1 6.28042ZM149.804 13.4412C148.63 13.4412 147.66 13.8125 146.892 14.5551C146.124 15.2977 145.74 16.1888 145.74 17.2285C145.74 18.2045 146.006 18.9577 146.54 19.4881C147.094 20.0186 147.841 20.2838 148.78 20.2838C149.953 20.2838 150.902 19.9125 151.628 19.1699C152.353 18.406 152.716 17.4619 152.716 16.3374C152.716 15.4038 152.449 14.693 151.916 14.205C151.404 13.6958 150.7 13.4412 149.804 13.4412Z" fill="black"/>
<path d="M174.433 6.78963C175.713 6.78963 176.907 7.10789 178.017 7.74441C179.147 8.35971 180.054 9.26144 180.737 10.4496C181.419 11.6378 181.761 13.0275 181.761 14.6188C181.761 16.5071 181.334 18.2151 180.481 19.7427C179.649 21.2491 178.507 22.4373 177.057 23.3072C175.627 24.1771 174.059 24.6121 172.352 24.6121C169.835 24.6121 168.064 23.827 167.04 22.257L165.376 30.4998H159.296L164 7.07607H169.76L169.408 8.69918C170.795 7.42615 172.47 6.78963 174.433 6.78963ZM171.488 19.7427C172.704 19.7427 173.696 19.2972 174.464 18.406C175.233 17.5149 175.617 16.3586 175.617 14.937C175.617 13.9186 175.318 13.1124 174.721 12.5183C174.144 11.9242 173.344 11.6272 172.32 11.6272C171.104 11.6272 170.112 12.0727 169.344 12.9638C168.576 13.855 168.192 15.0219 168.192 16.4647C168.192 17.4831 168.48 18.2894 169.056 18.8834C169.654 19.4563 170.464 19.7427 171.488 19.7427Z" fill="black"/>
<path d="M204.712 7.07607L201.256 24.3256H195.496L195.848 22.7025C194.461 23.9756 192.786 24.6121 190.823 24.6121C189.543 24.6121 188.338 24.3044 187.207 23.6891C186.098 23.0526 185.202 22.1403 184.519 20.9521C183.836 19.7639 183.495 18.3636 183.495 16.7511C183.495 14.884 183.911 13.1972 184.743 11.6908C185.597 10.1632 186.738 8.9644 188.167 8.09449C189.618 7.22459 191.197 6.78963 192.904 6.78963C195.421 6.78963 197.192 7.57467 198.216 9.14474L198.632 7.07607H204.712ZM192.936 19.7427C194.152 19.7427 195.144 19.2972 195.912 18.406C196.68 17.5149 197.064 16.3586 197.064 14.937C197.064 13.9186 196.765 13.1124 196.168 12.5183C195.592 11.9242 194.792 11.6272 193.768 11.6272C192.551 11.6272 191.559 12.0727 190.791 12.9638C190.023 13.855 189.639 15.0219 189.639 16.4647C189.639 17.4831 189.927 18.2894 190.503 18.8834C191.101 19.4563 191.911 19.7427 192.936 19.7427Z" fill="black"/>
</svg>
